<?xml version="1.0" standalone="no"?>
<!DOCTYPE svg PUBLIC "-//W3C//DTD SVG 20010904//EN"
 "http://www.w3.org/TR/2001/REC-SVG-20010904/DTD/svg10.dtd">
<svg version="1.0" xmlns="http://www.w3.org/2000/svg"
 width="320.000000pt" height="320.000000pt" viewBox="0 0 320.000000 320.000000"
 preserveAspectRatio="xMidYMid meet">
<metadata>
Created by potrace 1.11, written by Peter Selinger 2001-2013
</metadata>
<g transform="translate(0.000000,320.000000) scale(0.100000,-0.100000)"
fill="#000000" stroke="none">
<path d="M50 2861 c-5 -11 -10 -24 -10 -30 0 -6 116 -201 258 -433 143 -233
476 -778 742 -1213 265 -434 498 -814 516 -843 46 -71 72 -71 118 1 18 28 367
599 776 1267 659 1079 741 1217 733 1240 l-8 25 -1557 3 c-1532 2 -1557 2
-1568 -17z m1355 -80 c3 -6 -14 -21 -37 -34 -305 -175 -506 -293 -520 -305
-17 -14 -18 -44 -18 -354 0 -264 -3 -338 -12 -338 -15 1 -639 1021 -632 1032
7 12 1212 10 1219 -1z m1639 1 c2 -4 -37 -75 -87 -158 -51 -83 -191 -313 -312
-512 -121 -199 -226 -361 -232 -362 -10 0 -13 78 -15 342 l-3 343 -47 30 c-26
16 -156 92 -288 168 -132 77 -238 143 -234 148 6 11 1211 12 1218 1z m-1339
-62 c48 -27 89 -50 92 -50 2 0 28 -15 56 -34 29 -19 70 -44 92 -56 22 -12 54
-30 70 -41 17 -10 37 -22 45 -26 29 -13 180 -104 180 -108 0 -4 -220 -135
-227 -135 -3 0 -17 -8 -31 -19 -15 -10 -54 -33 -87 -50 -33 -18 -73 -41 -90
-51 -29 -18 -48 -29 -105 -61 -14 -8 -37 -22 -51 -32 -27 -18 -50 -15 -79 8
-8 7 -39 26 -68 41 -29 16 -61 34 -70 39 -15 9 -75 43 -222 127 -109 62 -220
130 -220 133 0 4 151 95 180 108 8 4 29 16 45 26 17 11 53 32 80 47 28 14 68
39 90 53 22 15 65 40 95 56 30 15 71 39 90 51 19 13 38 23 42 23 3 1 45 -21
93 -49z m-457 -587 c169 -97 310 -182 314 -188 10 -14 10 -723 0 -729 -5 -3
-150 77 -323 177 l-314 183 -3 354 c-2 336 -1 380 13 380 3 0 144 -80 313
-177z m71 -897 c146 -85 274 -158 284 -162 18 -6 44 8 415 223 89 52 166 93
172 91 11 -4 -562 -943 -575 -942 -6 0 -132 200 -282 444 -334 548 -307 500
-292 500 6 0 131 -69 278 -154z"/>
</g>
</svg>
