<?xml version="1.0" standalone="no"?>
<!DOCTYPE svg PUBLIC "-//W3C//DTD SVG 20010904//EN"
 "http://www.w3.org/TR/2001/REC-SVG-20010904/DTD/svg10.dtd">
<svg version="1.0" xmlns="http://www.w3.org/2000/svg"
 width="222.000000pt" height="222.000000pt" viewBox="0 0 222.000000 222.000000"
 preserveAspectRatio="xMidYMid meet">
<metadata>
Created by potrace 1.11, written by Peter Selinger 2001-2013
</metadata>
<g transform="translate(0.000000,222.000000) scale(0.100000,-0.100000)"
fill="#000000" stroke="none">
<path d="M167 1862 c-36 -3 -38 -5 -33 -28 10 -37 132 -246 365 -622 114 -185
234 -380 266 -432 259 -423 322 -519 342 -520 19 0 42 29 122 157 41 65 89
141 106 168 17 28 82 133 145 235 62 102 123 201 135 220 51 77 377 615 425
698 27 49 50 97 50 105 0 10 -13 16 -42 20 -49 5 -1823 5 -1881 -1z"/>
</g>
</svg>
